<svg width="9862" height="3978" viewBox="0 0 9862 3978" fill="none" xmlns="http://www.w3.org/2000/svg">
<path d="M0.36182 841.057C-0.390158 384.978 476.118 14.4661 1064.67 13.4957L8790.79 0.757005C9379.35 -0.213396 9857.07 368.725 9857.83 824.804L9861.64 3137.05C9862.39 3593.13 9385.88 3963.64 8797.33 3964.62L1071.21 3977.35C482.653 3978.32 4.92621 3609.39 4.17423 3153.31L0.36182 841.057Z" fill="white"/>
<path d="M1671.63 1817.98C1671.67 1839.56 1662.59 1857.68 1644.4 1872.36C1627.12 1887.8 1605.72 1895.54 1580.22 1895.58L1033.69 1896.48C1016.38 1897.28 1001.81 1900.77 989.98 1906.96C979.058 1912.37 970.871 1918.94 965.418 1926.65C959.964 1933.6 957.244 1940.92 957.257 1948.63C957.269 1956.34 960.015 1964.04 965.493 1971.74C970.969 1978.66 979.178 1985.2 990.119 1991.35C1001.97 1996.72 1016.55 1999.78 1033.86 2000.53L1421.9 1999.89C1485.66 2001.32 1538.06 2013.95 1579.09 2037.78C1621.03 2060.83 1650.67 2087.75 1668.03 2118.55C1686.3 2148.58 1695.46 2179.39 1695.51 2210.99C1695.56 2241.82 1686.5 2272.66 1668.34 2303.52C1650.17 2333.6 1620.61 2360.63 1579.66 2384.59C1538.71 2407.77 1486.35 2419.42 1422.59 2419.53L1414.39 2419.54C1408.93 2420.32 1403.46 2420.71 1398 2420.72L881.522 2421.57C856.017 2421.62 834.143 2414.33 815.901 2399.72C798.569 2384.33 789.885 2365.85 789.85 2344.27C789.814 2322.69 798.893 2304.56 817.087 2289.89C834.368 2274.45 855.761 2266.71 881.266 2266.67L1430.53 2265.76C1447.84 2266.5 1461.95 2263.78 1472.87 2257.6C1484.71 2251.41 1493.35 2244.46 1498.8 2236.75C1504.25 2228.26 1506.97 2219.78 1506.96 2211.3C1506.95 2205.91 1504.2 2198.59 1498.72 2189.35C1493.24 2179.34 1484.57 2171.26 1472.72 2165.11C1461.78 2158.97 1447.66 2155.52 1430.35 2154.78L1042.31 2155.42C978.546 2153.98 925.694 2141.74 883.755 2118.69C842.727 2095.64 813.08 2069.48 794.814 2040.23C777.457 2010.2 768.754 1979.77 768.703 1948.94C768.653 1918.88 777.713 1889.2 795.883 1859.88C814.051 1829.79 843.611 1803.16 884.563 1779.97C925.515 1756.78 977.87 1744.36 1041.63 1742.72L1049.83 1742.7C1055.29 1741.92 1060.76 1741.53 1066.22 1741.52L1579.96 1740.67C1605.47 1740.63 1626.89 1748.3 1644.22 1763.69C1662.46 1778.3 1671.6 1796.4 1671.63 1817.98Z" fill="black"/>
<path d="M2128.99 2421.83C2048.82 2419.65 1988.22 2403.95 1947.19 2374.73C1906.15 2344.74 1876.49 2311.27 1858.21 2274.3C1839.93 2236.57 1830.76 2198.44 1830.69 2159.9C1830.63 2119.82 1839.22 2081.28 1856.46 2044.25C1874.62 2006.46 1904.17 1972.89 1945.11 1943.53C1986.96 1913.41 2039.77 1897.91 2103.53 1897.03L2622.73 1896.17C2648.24 1896.13 2669.66 1903.42 2686.99 1918.03C2705.23 1931.88 2714.36 1948.82 2714.4 1968.85C2714.43 1989.66 2705.35 2007.4 2687.16 2022.08C2669.87 2035.98 2648.48 2042.95 2622.98 2042.99L2111.97 2043.83C2091.93 2043.87 2074.17 2049.68 2058.71 2061.26C2044.15 2072.85 2033.25 2087.89 2025.99 2106.4C2019.65 2124.91 2016.49 2143.02 2016.52 2160.75C2016.55 2180.02 2019.77 2198.89 2026.17 2217.38C2033.49 2235.86 2044.45 2250.88 2059.04 2262.41C2074.54 2273.18 2092.32 2278.93 2112.36 2279.66L2623.36 2278.82C2648.87 2278.78 2670.29 2285.68 2687.62 2299.52C2705.86 2313.37 2714.99 2329.92 2715.02 2349.19C2715.06 2369.23 2705.98 2386.2 2687.78 2400.1C2670.5 2414 2649.1 2420.97 2623.6 2421.01L2128.99 2421.83ZM2698.31 2156.16C2698.33 2170.8 2690.61 2183.53 2675.15 2194.35C2661.5 2204.39 2644.2 2209.42 2623.25 2209.46L2176.46 2210.2C2155.51 2210.23 2137.74 2205.25 2123.15 2195.26C2108.56 2184.49 2101.25 2171.79 2101.22 2157.14C2101.2 2143.27 2108.47 2130.93 2123.02 2120.11C2137.58 2110.07 2155.34 2105.03 2176.29 2105L2623.08 2104.26C2644.03 2104.23 2661.8 2109.59 2676.39 2120.36C2690.98 2130.35 2698.29 2142.29 2698.31 2156.16Z" fill="black"/>
<path d="M2900.34 2041.38C2917.58 2004.36 2946.68 1971.17 2987.62 1941.81C3029.47 1911.69 3082.28 1896.19 3146.04 1895.31L3659.78 1894.46C3685.28 1894.42 3706.7 1902.09 3724.03 1917.48C3742.28 1932.09 3751.42 1950.19 3751.45 1971.77C3751.49 1993.35 3742.41 2011.86 3724.22 2027.3C3706.93 2041.97 3685.54 2049.33 3660.03 2049.37L3140.83 2050.23C3123.52 2050.26 3108.5 2056.45 3095.77 2068.8C3083.04 2080.38 3073.04 2094.27 3065.78 2110.47C3059.43 2126.66 3056.27 2142.08 3056.29 2156.72L3056.62 2359.03C3051.24 2405.28 3021.22 2430.38 2966.57 2434.32C2941.07 2434.36 2918.74 2427.46 2899.59 2413.62C2881.34 2399.01 2872.21 2380.91 2872.17 2359.33L2871.84 2158.18L2873.2 2158.18C2873.14 2118.11 2882.18 2079.17 2900.34 2041.38Z" fill="black"/>
<path d="M4167.55 2418.47C4087.39 2416.29 4026.79 2400.59 3985.75 2371.37C3944.71 2341.38 3915.05 2307.9 3896.78 2270.94C3878.5 2233.21 3869.32 2195.07 3869.26 2156.54C3869.19 2116.46 3877.78 2077.92 3895.03 2040.89C3913.19 2003.1 3942.73 1969.53 3983.68 1940.17C4025.53 1910.05 4078.33 1894.55 4142.09 1893.67L4661.3 1892.81C4686.81 1892.77 4708.22 1900.06 4725.55 1914.67C4743.8 1928.51 4752.93 1945.45 4752.96 1965.49C4753 1986.3 4743.92 2004.04 4725.73 2018.72C4708.44 2032.62 4687.05 2039.59 4661.54 2039.63L4150.53 2040.47C4130.5 2040.51 4112.74 2046.31 4097.28 2057.9C4082.72 2069.48 4071.82 2084.53 4064.56 2103.04C4058.21 2121.55 4055.05 2139.66 4055.08 2157.39C4055.12 2176.66 4058.33 2195.53 4064.74 2214.02C4072.06 2232.5 4083.01 2247.51 4097.61 2259.05C4113.11 2269.81 4130.88 2275.57 4150.92 2276.3L4661.93 2275.46C4687.44 2275.42 4708.85 2282.32 4726.18 2296.16C4744.42 2310.01 4753.56 2326.56 4753.59 2345.83C4753.62 2365.87 4744.54 2382.84 4726.35 2396.74C4709.07 2410.64 4687.67 2417.61 4662.17 2417.65L4167.55 2418.47ZM4736.88 2152.8C4736.9 2167.44 4729.18 2180.17 4713.71 2190.98C4700.07 2201.03 4682.77 2206.06 4661.82 2206.1L4215.03 2206.83C4194.08 2206.87 4176.31 2201.89 4161.72 2191.89C4147.12 2181.13 4139.81 2168.42 4139.79 2153.78C4139.77 2139.91 4147.03 2127.57 4161.59 2116.75C4176.15 2106.71 4193.9 2101.67 4214.85 2101.64L4661.64 2100.9C4682.59 2100.86 4700.37 2106.23 4714.96 2117C4729.55 2126.99 4736.85 2138.92 4736.88 2152.8Z" fill="black"/>
<path d="M5345.8 1874.34C5393.17 1874.27 5439.63 1878.81 5485.19 1887.99C5531.66 1897.16 5575.86 1910.96 5617.8 1929.39C5659.73 1947.04 5696.66 1970.87 5728.59 2000.88C5761.43 2030.88 5779.25 2066.69 5782.05 2108.3L5782.46 2354.54C5777.07 2400.79 5747.05 2425.88 5692.4 2429.83C5666.9 2429.87 5644.57 2422.97 5625.42 2409.13C5607.18 2394.51 5598.04 2376.42 5598 2354.84L5597.66 2144.44C5595.79 2120.55 5584.83 2100.92 5564.77 2085.54C5545.61 2069.39 5523.73 2056.7 5499.12 2047.5C5475.42 2038.29 5450.36 2031.39 5423.94 2026.81C5398.42 2022.23 5372.46 2019.96 5346.04 2020C5319.63 2020.05 5293.22 2022.4 5266.81 2027.07C5241.31 2031.74 5216.27 2038.72 5191.7 2048C5168.03 2057.29 5146.19 2070.04 5126.17 2086.26C5107.07 2101.71 5096.63 2121.38 5094.85 2145.27L5095.19 2355.67C5090.71 2401.92 5061.15 2427.01 5006.5 2430.96C4981 2431 4958.67 2424.1 4939.52 2410.26C4921.28 2395.65 4912.14 2377.55 4912.1 2355.97L4911.7 2109.74C4914.36 2068.11 4931.61 2032.25 4963.44 2002.14C4995.27 1972.03 5032.12 1948.08 5074 1930.28C5115.87 1911.72 5159.57 1897.77 5205.1 1888.45C5251.54 1879.12 5298.44 1874.42 5345.8 1874.34Z" fill="black"/>
<path d="M6049.47 1878.96C6074.07 1879.69 6095.03 1887.37 6112.36 1901.98C6129.69 1915.83 6138.83 1933.15 6139.78 1953.96L6140.44 2353.94C6135.05 2400.2 6105.03 2425.29 6050.38 2429.24C6024.88 2429.28 6002.55 2422.38 5983.4 2408.54C5965.16 2393.92 5956.02 2375.83 5955.98 2354.25L5955.32 1954.26C5956.2 1932.68 5965.73 1914.94 5983.93 1901.04C6002.12 1886.36 6023.97 1879.01 6049.47 1878.96ZM5934.45 1728.87C5934.42 1707.29 5945.32 1688.78 5967.16 1673.33C5988.99 1657.88 6015.39 1650.13 6046.36 1650.07C6077.34 1650.02 6103.76 1657.69 6125.65 1673.06C6147.54 1688.44 6158.5 1706.92 6158.53 1728.5C6158.57 1750.85 6147.67 1769.75 6125.84 1785.2C6104 1800.65 6077.6 1808.4 6046.63 1808.45C6015.66 1808.5 5989.23 1800.84 5967.34 1785.46C5945.45 1770.08 5934.49 1751.22 5934.45 1728.87Z" fill="black"/>
<path d="M6565.71 1732.45L7142.3 1731.5C7167.81 1732.23 7188.77 1740.29 7205.19 1755.68C7222.52 1771.06 7231.21 1789.54 7231.24 1811.12C7226.77 1857.37 7197.2 1882.47 7142.56 1886.41L6612.42 1887.28C6577.81 1888.88 6549.13 1900.11 6526.4 1920.95C6503.66 1941.8 6486.85 1965.72 6475.96 1992.71C6465.98 2018.93 6461.02 2045.91 6461.06 2073.66C6461.11 2101.4 6466.16 2128.75 6476.23 2155.71C6487.2 2181.89 6504.09 2205.37 6526.9 2226.14C6549.7 2246.91 6578.42 2258.04 6613.03 2259.53L7028.4 2258.84C7044.79 2258.04 7053.43 2250.32 7054.32 2235.68L7054.21 2168.63C7053.27 2153.22 7044.61 2145.52 7028.21 2145.55L6678.43 2146.13C6652.92 2146.17 6631.05 2138.88 6612.81 2124.27C6595.48 2108.89 6586.79 2090.4 6586.76 2068.82C6586.72 2047.25 6595.35 2028.73 6612.63 2013.29C6630.82 1998.62 6652.67 1991.26 6678.17 1991.22L7145.46 1990.45C7170.96 1990.41 7192.84 1997.69 7211.08 2012.31C7227.5 2026.92 7236.18 2044.63 7237.13 2065.44L7237.58 2338.26C7236.7 2359.07 7228.08 2376.43 7211.7 2390.33C7194.42 2405 7173.48 2412.74 7148.89 2413.55L6566.83 2414.51C6503.07 2411.53 6450.2 2391.2 6408.24 2353.5C6367.18 2315.04 6337.51 2271.54 6319.21 2223.02C6301.82 2174.49 6293.09 2124.8 6293 2073.93C6292.92 2023.07 6301.95 1973.34 6320.09 1924.76C6338.22 1876.18 6367.76 1832.97 6408.68 1795.14C6449.61 1756.54 6501.95 1735.64 6565.71 1732.45Z" fill="black"/>
<path d="M7717.24 2387.18C7637.08 2385 7576.48 2369.3 7535.44 2340.08C7494.4 2310.1 7464.74 2276.62 7446.47 2239.66C7428.19 2201.92 7419.01 2163.79 7418.95 2125.25C7418.88 2085.18 7427.47 2046.63 7444.72 2009.61C7462.88 1971.81 7492.42 1938.24 7533.37 1908.89C7575.22 1878.76 7628.02 1863.26 7691.78 1862.38L8134.48 1861.65C8198.24 1862.32 8250.64 1877.65 8291.68 1907.64C8333.63 1936.85 8363.29 1970.33 8380.66 2008.07C8398.94 2045.03 8408.11 2083.55 8408.17 2123.62C8408.24 2163.7 8399.19 2200.32 8381.04 2238.12C8362.88 2275.14 8333.33 2308.71 8292.39 2338.84C8251.45 2368.19 8190.9 2384.09 8110.75 2386.53L7717.24 2387.18ZM7686.57 2017.3C7669.27 2017.33 7654.25 2023.52 7641.52 2035.87C7628.78 2047.45 7619.24 2061.34 7612.89 2077.54C7607.45 2092.96 7604.74 2108.38 7604.77 2123.79C7604.8 2139.98 7607.56 2156.16 7613.05 2172.33C7619.45 2187.73 7629.04 2201.59 7641.81 2213.9C7654.58 2225.44 7669.62 2231.58 7686.93 2232.32L8140.55 2231.58C8157.86 2230.78 8172.88 2224.59 8185.61 2213C8198.34 2200.65 8207.43 2186.77 8212.87 2171.34C8219.22 2155.15 8222.38 2138.96 8222.35 2122.77C8222.33 2107.36 8219.11 2091.95 8212.71 2076.55C8207.22 2060.37 8198.09 2046.52 8185.32 2034.98C8172.54 2022.67 8157.5 2016.53 8140.2 2016.55L7686.57 2017.3Z" fill="black"/>
</svg>
