<svg width="719" height="88" viewBox="0 0 719 88" fill="none" xmlns="http://www.w3.org/2000/svg">
<path d="M85.5234 18.3242C85.5234 20.7305 84.6641 22.75 82.9453 24.3828C81.3125 26.1016 79.293 26.9609 76.8867 26.9609H25.3242C23.6914 27.0469 22.3164 27.4336 21.1992 28.1211C20.168 28.7227 19.3945 29.4531 18.8789 30.3125C18.3633 31.0859 18.1055 31.9023 18.1055 32.7617C18.1055 33.6211 18.3633 34.4805 18.8789 35.3398C19.3945 36.1133 20.168 36.8438 21.1992 37.5312C22.3164 38.1328 23.6914 38.4766 25.3242 38.5625H61.9336C67.9492 38.7344 72.8906 40.1523 76.7578 42.8164C80.7109 45.3945 83.5039 48.4023 85.1367 51.8398C86.8555 55.1914 87.7148 58.6289 87.7148 62.1523C87.7148 65.5898 86.8555 69.0273 85.1367 72.4648C83.418 75.8164 80.625 78.8242 76.7578 81.4883C72.8906 84.0664 67.9492 85.3555 61.9336 85.3555H61.1602C60.6445 85.4414 60.1289 85.4844 59.6133 85.4844H10.8867C8.48047 85.4844 6.41797 84.668 4.69922 83.0352C3.06641 81.3164 2.25 79.2539 2.25 76.8477C2.25 74.4414 3.10938 72.4219 4.82812 70.7891C6.46094 69.0703 8.48047 68.2109 10.8867 68.2109H62.707C64.3398 68.2969 65.6719 67.9961 66.7031 67.3086C67.8203 66.6211 68.6367 65.8477 69.1523 64.9883C69.668 64.043 69.9258 63.0977 69.9258 62.1523C69.9258 61.5508 69.668 60.7344 69.1523 59.7031C68.6367 58.5859 67.8203 57.6836 66.7031 56.9961C65.6719 56.3086 64.3398 55.9219 62.707 55.8359H26.0977C20.082 55.6641 15.0977 54.2891 11.1445 51.7109C7.27734 49.1328 4.48438 46.2109 2.76562 42.9453C1.13281 39.5938 0.316406 36.1992 0.316406 32.7617C0.316406 29.4102 1.17578 26.1016 2.89453 22.8359C4.61328 19.4844 7.40625 16.5195 11.2734 13.9414C15.1406 11.3633 20.082 9.98828 26.0977 9.81641H26.8711C27.3867 9.73047 27.9023 9.6875 28.418 9.6875H76.8867C79.293 9.6875 81.3125 10.5469 82.9453 12.2656C84.6641 13.8984 85.5234 15.918 85.5234 18.3242ZM128.578 85.7422C121.016 85.4844 115.301 83.7227 111.434 80.457C107.566 77.1055 104.773 73.3672 103.055 69.2422C101.336 65.0312 100.477 60.7773 100.477 56.4805C100.477 52.0117 101.293 47.7148 102.926 43.5898C104.645 39.3789 107.438 35.6406 111.305 32.375C115.258 29.0234 120.242 27.3047 126.258 27.2188H175.242C177.648 27.2188 179.668 28.0352 181.301 29.668C183.02 31.2148 183.879 33.1055 183.879 35.3398C183.879 37.6602 183.02 39.6367 181.301 41.2695C179.668 42.8164 177.648 43.5898 175.242 43.5898H127.031C125.141 43.5898 123.465 44.2344 122.004 45.5234C120.629 46.8125 119.598 48.4883 118.91 50.5508C118.309 52.6133 118.008 54.6328 118.008 56.6094C118.008 58.7578 118.309 60.8633 118.91 62.9258C119.598 64.9883 120.629 66.6641 122.004 67.9531C123.465 69.1562 125.141 69.8008 127.031 69.8867H175.242C177.648 69.8867 179.668 70.6602 181.301 72.207C183.02 73.7539 183.879 75.6016 183.879 77.75C183.879 79.9844 183.02 81.875 181.301 83.4219C179.668 84.9688 177.648 85.7422 175.242 85.7422H128.578ZM182.332 56.2227C182.332 57.8555 181.602 59.2734 180.141 60.4766C178.852 61.5938 177.219 62.1523 175.242 62.1523H133.09C131.113 62.1523 129.438 61.5938 128.062 60.4766C126.688 59.2734 126 57.8555 126 56.2227C126 54.6758 126.688 53.3008 128.062 52.0977C129.438 50.9805 131.113 50.4219 133.09 50.4219H175.242C177.219 50.4219 178.895 51.0234 180.27 52.2266C181.645 53.3438 182.332 54.6758 182.332 56.2227ZM201.41 43.4609C203.043 39.3359 205.793 35.6406 209.66 32.375C213.613 29.0234 218.598 27.3047 224.613 27.2188H273.082C275.488 27.2188 277.508 28.0781 279.141 29.7969C280.859 31.4297 281.719 33.4492 281.719 35.8555C281.719 38.2617 280.859 40.3242 279.141 42.043C277.508 43.6758 275.488 44.4922 273.082 44.4922H224.098C222.465 44.4922 221.047 45.1797 219.844 46.5547C218.641 47.8438 217.695 49.3906 217.008 51.1953C216.406 53 216.105 54.7188 216.105 56.3516V78.9102C215.59 84.0664 212.754 86.8594 207.598 87.2891C205.191 87.2891 203.086 86.5156 201.281 84.9688C199.562 83.3359 198.703 81.3164 198.703 78.9102V56.4805H198.832C198.832 52.0117 199.691 47.6719 201.41 43.4609ZM320.906 85.7422C313.344 85.4844 307.629 83.7227 303.762 80.457C299.895 77.1055 297.102 73.3672 295.383 69.2422C293.664 65.0312 292.805 60.7773 292.805 56.4805C292.805 52.0117 293.621 47.7148 295.254 43.5898C296.973 39.3789 299.766 35.6406 303.633 32.375C307.586 29.0234 312.57 27.3047 318.586 27.2188H367.57C369.977 27.2188 371.996 28.0352 373.629 29.668C375.348 31.2148 376.207 33.1055 376.207 35.3398C376.207 37.6602 375.348 39.6367 373.629 41.2695C371.996 42.8164 369.977 43.5898 367.57 43.5898H319.359C317.469 43.5898 315.793 44.2344 314.332 45.5234C312.957 46.8125 311.926 48.4883 311.238 50.5508C310.637 52.6133 310.336 54.6328 310.336 56.6094C310.336 58.7578 310.637 60.8633 311.238 62.9258C311.926 64.9883 312.957 66.6641 314.332 67.9531C315.793 69.1562 317.469 69.8008 319.359 69.8867H367.57C369.977 69.8867 371.996 70.6602 373.629 72.207C375.348 73.7539 376.207 75.6016 376.207 77.75C376.207 79.9844 375.348 81.875 373.629 83.4219C371.996 84.9688 369.977 85.7422 367.57 85.7422H320.906ZM374.66 56.2227C374.66 57.8555 373.93 59.2734 372.469 60.4766C371.18 61.5938 369.547 62.1523 367.57 62.1523H325.418C323.441 62.1523 321.766 61.5938 320.391 60.4766C319.016 59.2734 318.328 57.8555 318.328 56.2227C318.328 54.6758 319.016 53.3008 320.391 52.0977C321.766 50.9805 323.441 50.4219 325.418 50.4219H367.57C369.547 50.4219 371.223 51.0234 372.598 52.2266C373.973 53.3438 374.66 54.6758 374.66 56.2227ZM432.152 25.2852C436.621 25.2852 441.004 25.8008 445.301 26.832C449.684 27.8633 453.852 29.4102 457.805 31.4727C461.758 33.4492 465.238 36.1133 468.246 39.4648C471.34 42.8164 473.016 46.8125 473.273 51.4531V56.8672V78.9102C472.758 84.0664 469.922 86.8594 464.766 87.2891C462.359 87.2891 460.254 86.5156 458.449 84.9688C456.73 83.3359 455.871 81.3164 455.871 78.9102V73.2383V55.4492C455.699 52.7852 454.668 50.5938 452.777 48.875C450.973 47.0703 448.91 45.6523 446.59 44.6211C444.355 43.5898 441.992 42.8164 439.5 42.3008C437.094 41.7852 434.645 41.5273 432.152 41.5273C429.66 41.5273 427.168 41.7852 424.676 42.3008C422.27 42.8164 419.906 43.5898 417.586 44.6211C415.352 45.6523 413.289 47.0703 411.398 48.875C409.594 50.5938 408.605 52.7852 408.434 55.4492V73.2383V78.9102C408.004 84.0664 405.211 86.8594 400.055 87.2891C397.648 87.2891 395.543 86.5156 393.738 84.9688C392.02 83.3359 391.16 81.3164 391.16 78.9102V56.8672V51.4531C391.418 46.8125 393.051 42.8164 396.059 39.4648C399.066 36.1133 402.547 33.4492 406.5 31.4727C410.453 29.4102 414.578 27.8633 418.875 26.832C423.258 25.8008 427.684 25.2852 432.152 25.2852ZM498.539 25.9297C500.859 26.0156 502.836 26.875 504.469 28.5078C506.102 30.0547 506.961 31.9883 507.047 34.3086V78.9102C506.531 84.0664 503.695 86.8594 498.539 87.2891C496.133 87.2891 494.027 86.5156 492.223 84.9688C490.504 83.3359 489.645 81.3164 489.645 78.9102V34.3086C489.73 31.9023 490.633 29.9258 492.352 28.3789C494.07 26.7461 496.133 25.9297 498.539 25.9297ZM487.711 9.17188C487.711 6.76563 488.742 4.70313 490.805 2.98438C492.867 1.26562 495.359 0.40625 498.281 0.40625C501.203 0.40625 503.695 1.26562 505.758 2.98438C507.82 4.70313 508.852 6.76563 508.852 9.17188C508.852 11.6641 507.82 13.7695 505.758 15.4883C503.695 17.207 501.203 18.0664 498.281 18.0664C495.359 18.0664 492.867 17.207 490.805 15.4883C488.742 13.7695 487.711 11.6641 487.711 9.17188ZM547.266 9.6875H601.664C604.07 9.77344 606.047 10.6758 607.594 12.3945C609.227 14.1133 610.043 16.1758 610.043 18.582C609.613 23.7383 606.82 26.5312 601.664 26.9609H551.648C548.383 27.1328 545.676 28.3789 543.527 30.6992C541.379 33.0195 539.789 35.6836 538.758 38.6914C537.812 41.6133 537.34 44.6211 537.34 47.7148C537.34 50.8086 537.812 53.8594 538.758 56.8672C539.789 59.7891 541.379 62.4102 543.527 64.7305C545.676 67.0508 548.383 68.2969 551.648 68.4688H590.836C592.383 68.3828 593.199 67.5234 593.285 65.8906V58.4141C593.199 56.6953 592.383 55.8359 590.836 55.8359H557.836C555.43 55.8359 553.367 55.0195 551.648 53.3867C550.016 51.668 549.199 49.6055 549.199 47.1992C549.199 44.793 550.016 42.7305 551.648 41.0117C553.367 39.3789 555.43 38.5625 557.836 38.5625H601.922C604.328 38.5625 606.391 39.3789 608.109 41.0117C609.656 42.6445 610.473 44.6211 610.559 46.9414V47.1992V77.3633C610.473 79.6836 609.656 81.6172 608.109 83.1641C606.477 84.7969 604.5 85.6562 602.18 85.7422H547.266C541.25 85.3984 536.266 83.1211 532.312 78.9102C528.445 74.6133 525.652 69.7578 523.934 64.3438C522.301 58.9297 521.484 53.3867 521.484 47.7148C521.484 42.043 522.344 36.5 524.062 31.0859C525.781 25.6719 528.574 20.8594 532.441 16.6484C536.309 12.3516 541.25 10.0312 547.266 9.6875ZM653.227 85.7422C645.664 85.4844 639.949 83.7227 636.082 80.457C632.215 77.1055 629.422 73.3672 627.703 69.2422C625.984 65.0312 625.125 60.7773 625.125 56.4805C625.125 52.0117 625.941 47.7148 627.574 43.5898C629.293 39.3789 632.086 35.6406 635.953 32.375C639.906 29.0234 644.891 27.3047 650.906 27.2188H692.672C698.688 27.3047 703.629 29.0234 707.496 32.375C711.449 35.6406 714.242 39.3789 715.875 43.5898C717.594 47.7148 718.453 52.0117 718.453 56.4805C718.453 60.7773 717.594 65.0312 715.875 69.2422C714.156 73.3672 711.363 77.1055 707.496 80.457C703.629 83.7227 697.914 85.4844 690.352 85.7422H653.227ZM650.391 44.4922C648.758 44.4922 647.34 45.1797 646.137 46.5547C644.934 47.8438 644.031 49.3906 643.43 51.1953C642.914 52.9141 642.656 54.6328 642.656 56.3516C642.656 58.1562 642.914 59.9609 643.43 61.7656C644.031 63.4844 644.934 65.0312 646.137 66.4062C647.34 67.6953 648.758 68.3828 650.391 68.4688H693.188C694.82 68.3828 696.238 67.6953 697.441 66.4062C698.645 65.0312 699.504 63.4844 700.02 61.7656C700.621 59.9609 700.922 58.1562 700.922 56.3516C700.922 54.6328 700.621 52.9141 700.02 51.1953C699.504 49.3906 698.645 47.8438 697.441 46.5547C696.238 45.1797 694.82 44.4922 693.188 44.4922H650.391Z" fill="#040404"/>
</svg>
